<svg enable-background="new 0 0 534.54 102.06" viewBox="0 0 534.54 102.06" xmlns="http://www.w3.org/2000/svg"><path d="m522.82 28.42c-4.85 0-8.79-3.94-8.79-8.79s3.94-8.79 8.79-8.79 8.79 3.94 8.79 8.79-3.94 8.79-8.79 8.79zm0-16.61c-4.31 0-7.81 3.5-7.81 7.81s3.5 7.81 7.81 7.81 7.81-3.5 7.81-7.81-3.5-7.81-7.81-7.81z" fill="#3c4150"/><path d="m521.52 20.08v3.3h-.92v-7.94h2.18c.97 0 1.69.19 2.16.56.46.37.7.93.7 1.68 0 1.05-.53 1.76-1.6 2.13l2.16 3.57h-1.09l-1.92-3.3zm0-.79h1.27c.65 0 1.13-.13 1.43-.39s.46-.65.46-1.16c0-.52-.15-.9-.46-1.13s-.81-.35-1.49-.35h-1.2v3.03z" fill="#3c4150"/><path d="m196.13 10.8h-17.11l22.19 30.73 7.01-9.87c2.23-3.13 2.2-7.33-.05-10.43l-4.97-6.83c-1.65-2.26-4.27-3.6-7.07-3.6" fill="#3c4150"/><path d="m221.96 70.5 9.48 13.22c1.68 2.35 4.39 3.74 7.27 3.74h16.96l-25.65-35.8-7.35 7.87c-2.82 3.02-3.11 7.61-.71 10.97" fill="#3c4150"/><path d="m262.86 3.61-88.92 95.45c-1.02 1.1-2.72-.29-1.86-1.51l64.26-90.34c1.61-2.26 4.21-3.6 6.98-3.6h19.54z" fill="#08b2e3"/><g fill="#3c4150"><path d="m141.39 71.05h-35.59l-6.79 16.42h-18.17l34.16-76.64h17.52l34.27 76.65h-18.61zm-5.58-13.47-12.15-29.34-12.16 29.34z"/><path d="m297.43 25.06v20.26h34.96v14.23h-34.96v27.93h-17.74v-76.65h57.49v14.23z"/><path d="m361.18 53.75v-42.92h17.74v42.27c0 14.56 6.35 20.58 17.08 20.58 10.84 0 16.84-6.02 16.84-20.58v-42.27h17.77v42.92c0 22.56-12.92 35.04-34.71 35.04s-34.72-12.48-34.72-35.04"/><path d="m454.6 10.83h17.74v62.19h39.75v14.46h-57.49z"/><path d="m70.52 38.64c0 17.08-12.81 27.7-33.29 27.7h-15.43v21.13h-17.74v-76.64h33.17c20.48 0 33.29 10.62 33.29 27.81m-17.95 0c0-8.43-5.48-13.36-16.32-13.36h-14.45v26.61h14.45c10.84 0 16.32-4.93 16.32-13.25"/></g></svg>